<?xml version="1.0" encoding="iso-8859-1"?>
<!-- Uploaded to: SVG Repo, www.svgrepo.com, Generator: SVG Repo Mixer Tools -->
<svg fill="#000000" height="800px" width="800px" version="1.1" id="Layer_1" xmlns="http://www.w3.org/2000/svg" xmlns:xlink="http://www.w3.org/1999/xlink" 
	 viewBox="0 0 512 512" xml:space="preserve">
<g>
	<g>
		<path d="M272.06,391.505c-0.197-1.049-0.524-2.081-0.934-3.081c-0.41-0.983-0.918-1.934-1.508-2.819
			c-0.588-0.901-1.277-1.737-2.032-2.491c-0.754-0.754-1.59-1.442-2.491-2.048c-0.885-0.59-1.835-1.082-2.835-1.491
			c-0.983-0.41-2.014-0.737-3.063-0.95c-2.114-0.426-4.293-0.41-6.391,0c-1.049,0.213-2.081,0.541-3.081,0.95
			c-0.985,0.41-1.934,0.901-2.819,1.491c-0.903,0.606-1.739,1.295-2.492,2.048c-0.754,0.754-1.442,1.59-2.032,2.491
			c-0.588,0.885-1.098,1.835-1.508,2.819c-0.41,1-0.737,2.032-0.932,3.081c-0.215,1.049-0.328,2.13-0.328,3.196
			c0,4.31,1.752,8.538,4.801,11.586c0.754,0.754,1.59,1.442,2.492,2.032c0.882,0.592,1.831,1.098,2.815,1.508
			c1,0.41,2.032,0.737,3.081,0.934c1.049,0.213,2.13,0.328,3.195,0.328c1.064,0,2.147-0.115,3.196-0.328
			c1.049-0.197,2.081-0.524,3.063-0.934c1-0.41,1.95-0.918,2.835-1.508c0.901-0.59,1.737-1.278,2.491-2.032
			c3.048-3.048,4.803-7.276,4.803-11.586C272.387,393.635,272.273,392.553,272.06,391.505z"/>
	</g>
</g>
<g>
	<g>
		<path d="M431.655,0H80.343c-9.049,0-16.387,7.337-16.387,16.387v63.394c0,80.52,50.428,144.631,129.844,167.165
			c-0.056,1.072-0.084,2.152-0.084,3.237c0,28.666,19.48,52.855,45.896,60.067v35.288c0,9.051,7.338,16.387,16.387,16.387
			c9.049,0,16.387-7.337,16.387-16.387V310.25c26.416-7.212,45.896-31.401,45.896-60.067c0-1.086-0.029-2.165-0.084-3.237
			c79.416-22.534,129.844-86.644,129.844-167.165V16.387C448.042,7.337,440.706,0,431.655,0z M395.569,33.63
			c9.696,0,17.585,7.889,17.585,17.585S405.265,68.8,395.569,68.8s-17.584-7.889-17.584-17.585S385.872,33.63,395.569,33.63z
			 M325.785,33.63c9.696,0,17.584,7.889,17.584,17.585S335.481,68.8,325.785,68.8c-9.696,0-17.585-7.889-17.585-17.585
			S316.089,33.63,325.785,33.63z M256,33.63c9.696,0,17.585,7.889,17.585,17.585S265.696,68.8,256,68.8
			c-9.696,0-17.585-7.889-17.585-17.585S246.304,33.63,256,33.63z M186.215,33.63c9.696,0,17.585,7.889,17.585,17.585
			S195.911,68.8,186.215,68.8c-9.696,0-17.584-7.889-17.584-17.585S176.519,33.63,186.215,33.63z M116.43,33.63
			c9.696,0,17.585,7.889,17.585,17.585S126.128,68.8,116.431,68.8c-9.696,0-17.587-7.889-17.587-17.585S106.733,33.63,116.43,33.63z
			 M256,279.678c-16.271,0-29.509-13.231-29.509-29.495c0-3.917,0.783-7.651,2.176-11.075c0.079-0.193,0.152-0.39,0.234-0.582
			c0.723-1.675,1.591-3.271,2.599-4.769c0.051-0.074,0.105-0.146,0.156-0.22c0.452-0.659,0.931-1.298,1.434-1.916
			c0.111-0.136,0.224-0.272,0.338-0.406c0.475-0.564,0.973-1.109,1.488-1.637c0.118-0.12,0.231-0.246,0.352-0.364
			c1.234-1.219,2.576-2.327,4.008-3.317c0.266-0.182,0.539-0.352,0.81-0.526c0.441-0.284,0.887-0.557,1.342-0.816
			c0.333-0.188,0.667-0.375,1.008-0.551c0.431-0.224,0.873-0.431,1.316-0.636c0.346-0.159,0.688-0.326,1.041-0.472
			c0.734-0.303,1.481-0.578,2.243-0.823c0.326-0.105,0.66-0.184,0.99-0.277c0.523-0.147,1.046-0.288,1.58-0.406
			c0.351-0.079,0.705-0.144,1.059-0.21c0.567-0.103,1.139-0.192,1.716-0.262c0.306-0.038,0.613-0.08,0.923-0.11
			c0.89-0.082,1.789-0.136,2.701-0.136c0.911,0,1.809,0.056,2.701,0.136c0.31,0.028,0.616,0.07,0.924,0.11
			c0.575,0.07,1.146,0.159,1.711,0.262c0.356,0.066,0.711,0.133,1.062,0.211c0.529,0.118,1.049,0.257,1.568,0.403
			c0.334,0.093,0.674,0.175,1.003,0.28c0.759,0.242,1.503,0.518,2.235,0.819c0.361,0.149,0.711,0.32,1.065,0.483
			c0.434,0.2,0.865,0.401,1.286,0.621c0.347,0.18,0.69,0.37,1.029,0.564c0.444,0.254,0.88,0.519,1.308,0.795
			c0.282,0.18,0.567,0.357,0.842,0.547c1.422,0.985,2.758,2.086,3.985,3.297c0.133,0.131,0.257,0.267,0.387,0.4
			c0.501,0.513,0.985,1.044,1.449,1.593c0.123,0.146,0.246,0.293,0.367,0.443c0.488,0.603,0.955,1.224,1.396,1.865
			c0.061,0.089,0.128,0.175,0.187,0.264c1.001,1.491,1.867,3.081,2.586,4.746c0.087,0.202,0.164,0.41,0.247,0.615
			c1.386,3.417,2.168,7.143,2.168,11.053C285.509,266.447,272.269,279.678,256,279.678z M307.93,215.805
			c-0.093-0.143-0.2-0.274-0.295-0.416c-0.046-0.069-0.097-0.134-0.144-0.203c-0.891-1.308-1.835-2.568-2.819-3.797
			c-0.287-0.359-0.57-0.719-0.864-1.072c-0.406-0.485-0.823-0.962-1.242-1.434c-0.359-0.405-0.724-0.803-1.095-1.2
			c-0.388-0.415-0.775-0.829-1.175-1.232c-0.544-0.551-1.104-1.086-1.668-1.617c-0.247-0.233-0.487-0.475-0.737-0.703
			c-0.849-0.773-1.724-1.517-2.615-2.243c-0.19-0.156-0.387-0.303-0.58-0.456c-0.772-0.615-1.558-1.209-2.358-1.788
			c-0.17-0.123-0.342-0.246-0.516-0.367c-0.944-0.667-1.906-1.311-2.887-1.924c-0.007-0.005-0.013-0.008-0.02-0.013
			c-6.371-3.982-13.506-6.843-21.136-8.31c-0.116-0.023-0.233-0.041-0.349-0.062c-1.044-0.195-2.099-0.362-3.161-0.503
			c-0.287-0.039-0.574-0.075-0.862-0.11c-0.929-0.111-1.863-0.198-2.804-0.267c-0.315-0.023-0.628-0.054-0.942-0.072
			c-1.213-0.07-2.43-0.116-3.661-0.116c-1.229,0-2.448,0.046-3.659,0.116c-0.316,0.018-0.631,0.049-0.945,0.072
			c-0.939,0.069-1.871,0.157-2.797,0.267c-0.29,0.034-0.58,0.072-0.87,0.111c-1.057,0.141-2.106,0.308-3.145,0.501
			c-0.121,0.023-0.244,0.043-0.365,0.066c-7.62,1.465-14.747,4.321-21.11,8.297c-0.031,0.02-0.062,0.039-0.093,0.059
			c-0.954,0.598-1.888,1.222-2.805,1.87c-0.193,0.136-0.383,0.272-0.575,0.41c-0.773,0.559-1.534,1.134-2.279,1.727
			c-0.216,0.17-0.436,0.338-0.649,0.511c-0.878,0.716-1.742,1.45-2.579,2.212c-0.292,0.266-0.569,0.546-0.857,0.818
			c-0.521,0.492-1.041,0.987-1.544,1.496c-0.419,0.424-0.828,0.859-1.234,1.295c-0.346,0.37-0.688,0.744-1.026,1.123
			c-0.439,0.493-0.872,0.988-1.296,1.496c-0.266,0.318-0.519,0.642-0.778,0.965c-1.164,1.45-2.286,2.937-3.322,4.495
			c-60.351-16.535-99.513-60.159-106.284-117.826c5.772,2.311,12.061,3.594,18.649,3.594c13.536,0,25.833-5.378,34.892-14.098
			c9.059,8.72,21.354,14.098,34.892,14.098c13.538,0,25.835-5.378,34.892-14.098c9.059,8.72,21.356,14.098,34.892,14.098
			c13.536,0,25.834-5.378,34.892-14.098c9.059,8.72,21.356,14.098,34.892,14.098c13.536,0,25.833-5.378,34.892-14.098
			c9.059,8.72,21.354,14.098,34.892,14.098c6.588,0,12.875-1.285,18.649-3.594C407.444,155.648,368.282,199.272,307.93,215.805z"/>
	</g>
</g>
<g>
	<g>
		<path d="M384.76,485.62c-1.406-1.829-2.841-3.595-4.262-5.242c-28.216-32.804-74.755-52.387-124.496-52.387
			c-49.734,0-96.277,19.583-124.51,52.39c-1.411,1.642-2.843,3.409-4.259,5.247c-3.802,4.949-4.464,11.63-1.706,17.228
			c2.76,5.599,8.459,9.144,14.701,9.144h231.544c6.244,0,11.945-3.548,14.703-9.149C389.232,497.25,388.566,490.567,384.76,485.62z
			 M183.88,479.225c20.423-11.836,45.611-18.46,72.124-18.46c26.516,0,51.702,6.624,72.12,18.46H183.88z"/>
	</g>
</g>
</svg>