<?xml version="1.0" encoding="UTF-8"?>
<svg version="1.1" xmlns="http://www.w3.org/2000/svg" width="475" height="475">
<path d="M0 0 C4.29 0 8.58 0 13 0 C13.49628906 1.03898437 13.99257812 2.07796875 14.50390625 3.1484375 C18.43737626 11.26462711 22.54992357 18.77370944 28 26 C30.10851169 23.27416569 32.21101812 20.54375647 34.3125 17.8125 C34.90740234 17.04357422 35.50230469 16.27464844 36.11523438 15.48242188 C41.83758567 8.39129899 41.83758567 8.39129899 45 0 C47.31 0 49.62 0 52 0 C52 0.99 52 1.98 52 3 C50.59102158 3.90379251 49.17938183 4.8036764 47.75537109 5.68359375 C44.25636057 8.30760831 41.8768799 11.99960658 39.3125 15.5 C38.74466797 16.25925781 38.17683594 17.01851563 37.59179688 17.80078125 C36.53650037 19.21361666 35.48499068 20.62929519 34.4387207 22.04882812 C33.42303116 23.42629135 32.36738528 24.77471665 31.28491211 26.1003418 C30.86089111 26.727229 30.43687012 27.35411621 30 28 C30.97263815 32.45792483 33.93564957 35.7138201 36.75 39.1875 C40.44056944 43.843468 43.60682803 48.53613348 46.55078125 53.70703125 C48.58836085 56.93091057 51.06351467 59.64284666 53.6796875 62.40625 C55 64 55 64 55 66 C50.38 66 45.76 66 41 66 C40.54625 64.47375 40.0925 62.9475 39.625 61.375 C37.25530723 54.75531476 33.43289413 49.620642 29.2421875 44.06640625 C27.51433973 41.70340887 26.28468554 39.58772372 25 37 C24.34 36.67 23.68 36.34 23 36 C22.78085938 36.68191406 22.56171875 37.36382812 22.3359375 38.06640625 C20.6158145 41.8436354 18.24091701 44.73988565 15.625 47.9375 C8.51409086 56.08178495 8.51409086 56.08178495 5 66 C2.03 66 -0.94 66 -4 66 C-3 63 -3 63 -0.8125 61.75 C5.64696148 57.73077952 9.669383 50.74941793 14.03125 44.66796875 C16.52824506 41.2841441 19.20710933 38.14200201 22 35 C20.64849257 31.20226411 18.9347216 28.32805587 16.5 25.125 C12.55726756 19.83913893 8.90336619 14.40304148 5.32617188 8.86376953 C3.2008884 5.37464223 3.2008884 5.37464223 0 3 C0 2.01 0 1.02 0 0 Z " fill="#99224E" transform="translate(184,267)"/>
<path d="M0 0 C4.21733194 3.40975774 5.88871597 7.15855889 6.9375 12.375 C7.07376489 14.57069092 7.16173881 16.76957369 7.21875 18.96875 C7.27482422 20.88494141 7.27482422 20.88494141 7.33203125 22.83984375 C7.38561574 24.86081466 7.43767576 26.88182162 7.48974609 28.90283203 C7.54170258 30.86240188 7.59891077 32.82183026 7.65625 34.78125 C7.68654297 35.94978516 7.71683594 37.11832031 7.74804688 38.32226562 C7.85642798 41.56631723 7.85642798 41.56631723 8.9375 45.375 C5.6375 45.375 2.3375 45.375 -1.0625 45.375 C-1.0718457 44.32634766 -1.08119141 43.27769531 -1.09082031 42.19726562 C-1.13094378 38.27562272 -1.19676226 34.35474602 -1.27001953 30.43359375 C-1.29810037 28.74228826 -1.31937854 27.05085468 -1.33349609 25.359375 C-1.35510608 22.91600575 -1.40184334 20.47415575 -1.453125 18.03125 C-1.45435364 17.28508423 -1.45558228 16.53891846 -1.45684814 15.7701416 C-1.61288621 10.07148493 -3.25230572 6.32955856 -6.0625 1.375 C-7.64496707 1.29346067 -9.22866273 1.23556443 -10.8125 1.1875 C-11.69421875 1.15269531 -12.5759375 1.11789063 -13.484375 1.08203125 C-16.56743103 1.43237853 -17.84765964 2.23498533 -20.0625 4.375 C-20.3925 5.365 -20.7225 6.355 -21.0625 7.375 C-20.47082031 7.46136719 -19.87914062 7.54773438 -19.26953125 7.63671875 C-13.7398573 8.61997236 -10.61669551 9.74377555 -7.0625 14.375 C-4.15356662 20.43956077 -3.97442705 27.23619088 -5.6796875 33.72265625 C-8.02769509 39.11476217 -11.90761822 42.63764489 -17.0625 45.375 C-21.59077175 47.01605972 -24.99834327 46.70229295 -29.375 44.75 C-32.7950452 42.76113285 -34.72533889 41.2193382 -36.0625 37.375 C-37.00264315 31.18928543 -36.41270816 26.34740035 -32.7578125 21.19921875 C-29.28810825 17.46568906 -24.86081541 14.05113617 -19.84765625 12.83984375 C-19.25855469 12.68644531 -18.66945313 12.53304687 -18.0625 12.375 C-17.7325 11.715 -17.4025 11.055 -17.0625 10.375 C-20.3625 10.375 -23.6625 10.375 -27.0625 10.375 C-26.4625 4.975 -26.4625 4.975 -24.9375 2.6875 C-17.79044971 -2.31543521 -8.06817256 -4.09404085 0 0 Z M-27.0625 22.25 C-28.66360913 27.25346603 -28.71028612 30.81442434 -26.6875 35.6875 C-25.18870781 38.4082743 -25.18870781 38.4082743 -23.0625 40.375 C-19.45516686 40.71531445 -16.78329791 40.64320387 -13.375 39.375 C-9.50096536 36.02448356 -7.52072067 32.11506705 -6.67578125 27.0625 C-6.47635867 22.99152879 -6.97169586 20.57407062 -8.6875 16.8125 C-10.84192762 14.17419283 -10.84192762 14.17419283 -13.8125 13.6875 C-19.51913538 14.89467287 -23.72025507 17.44552292 -27.0625 22.25 Z " fill="#B02155" transform="translate(360.0625,208.625)"/>
<path d="M0 0 C1.37478516 0.01740234 1.37478516 0.01740234 2.77734375 0.03515625 C3.69644531 0.04417969 4.61554688 0.05320312 5.5625 0.0625 C6.27277344 0.07410156 6.98304688 0.08570313 7.71484375 0.09765625 C7.84117187 0.61972656 7.9675 1.14179688 8.09765625 1.6796875 C12.62969583 19.43495649 18.8644097 36.74592284 24.71484375 54.09765625 C26.71126301 51.10302736 27.75256917 48.51600255 28.95703125 45.13671875 C29.38371094 43.94175781 29.81039062 42.74679687 30.25 41.515625 C30.47059082 40.89091309 30.69118164 40.26620117 30.91845703 39.62255859 C31.57588328 37.76216183 32.24098541 35.90448325 32.90625 34.046875 C40.00503053 17.83996163 40.00503053 17.83996163 40.71484375 1.09765625 C41.71484375 0.09765625 41.71484375 0.09765625 45.27734375 0.03515625 C46.41171875 0.05578125 47.54609375 0.07640625 48.71484375 0.09765625 C48.71484375 3.53365381 47.74068432 4.4957061 45.84457397 7.2097168 C43.51943961 11.09534614 42.28540301 15.47720903 40.859375 19.75390625 C40.51226974 20.77440063 40.16516449 21.79489502 39.80754089 22.84631348 C39.0782123 24.99655392 38.35313964 27.14824207 37.63208008 29.30126953 C36.52996573 32.5898326 35.41356938 35.87327879 34.29492188 39.15625 C33.58639177 41.25101551 32.8786816 43.34605857 32.171875 45.44140625 C31.83960403 46.41968384 31.50733307 47.39796143 31.16499329 48.40588379 C29.17094248 54.38231905 27.71484375 59.74667099 27.71484375 66.09765625 C25.40484375 66.09765625 23.09484375 66.09765625 20.71484375 66.09765625 C17.95255627 60.11155169 15.5456656 54.08819367 13.40234375 47.85546875 C13.10674561 47.00644989 12.81114746 46.15743103 12.5065918 45.28268433 C11.57237849 42.59725279 10.6434004 39.91004831 9.71484375 37.22265625 C8.48699099 33.683137 7.25722333 30.14428418 6.02734375 26.60546875 C5.73472656 25.76268372 5.44210938 24.91989868 5.140625 24.05157471 C2.46294218 16.34922467 -0.23141286 8.66033843 -3.28515625 1.09765625 C-2.28515625 0.09765625 -2.28515625 0.09765625 0 0 Z " fill="#99224E" transform="translate(245.28515625,266.90234375)"/>
<path d="M0 0 C2.73647818 1.18215857 4.315832 2.003332 6.4375 4.125 C6.44921875 6.18359375 6.44921875 6.18359375 6.125 8.5625 C6.02574219 9.34496094 5.92648437 10.12742188 5.82421875 10.93359375 C5.4375 13.125 5.4375 13.125 4.4375 16.125 C0.65038986 14.86262995 0.48838728 13.76757307 -1.3125 10.3125 C-4.1879077 5.35685908 -6.16056685 3.1151859 -11.5625 1.125 C-16.63886143 1.24590046 -16.63886143 1.24590046 -20.5625 4.125 C-21.1463196 7.0399255 -21.1463196 7.0399255 -20.5625 10.125 C-15.98251359 14.74140777 -10.15517037 16.32314537 -4.15625 18.39257812 C0.75687063 20.18177289 4.08833624 21.91406311 7.4375 26.125 C8.84553672 29.43421073 8.90269279 32.62300499 7.83984375 36.0546875 C5.54911112 40.67581912 2.23714654 43.27686024 -2.5625 45.125 C-10.45759828 47.72526274 -18.18035316 47.5918173 -25.8125 44.09375 C-27.43845273 43.17587346 -29.00894387 42.16070409 -30.5625 41.125 C-30.44851335 39.49919034 -30.32094341 37.87432843 -30.1875 36.25 C-30.11789063 35.34507812 -30.04828125 34.44015625 -29.9765625 33.5078125 C-29.5625 31.125 -29.5625 31.125 -27.5625 29.125 C-27.2221875 29.72828125 -26.881875 30.3315625 -26.53125 30.953125 C-23.09875274 36.61309388 -20.09326892 40.34063691 -13.5625 42.125 C-7.92676314 42.94787499 -3.34248292 42.47098805 1.4375 39.125 C2.84774591 37.31810088 2.84774591 37.31810088 2.4375 35.125 C-1.37001381 30.50580688 -4.99510774 28.88329428 -10.5 27.125 C-16.22418285 25.28642026 -20.19414978 23.33498103 -24.5625 19.125 C-26.85650575 14.53698851 -26.88343039 11.05647347 -25.5625 6.125 C-19.63001698 -3.5484891 -9.88439217 -3.84472729 0 0 Z " fill="#D01C5E" transform="translate(253.5625,208.875)"/>
<path d="M0 0 C2 2 2 2 2.01171875 4.05859375 C1.90472656 4.84363281 1.79773438 5.62867188 1.6875 6.4375 C1.58824219 7.21996094 1.48898438 8.00242188 1.38671875 8.80859375 C1 11 1 11 0 14 C-3 13 -3 13 -3.9921875 11.29296875 C-4.28351563 10.59816406 -4.57484375 9.90335938 -4.875 9.1875 C-6.64959234 5.40125146 -8.43478719 3.31738833 -12 1 C-12.61875 0.566875 -13.2375 0.13375 -13.875 -0.3125 C-17.12201055 -1.36300341 -19.71899659 -0.72911187 -23 0 C-25.27180354 1.87668319 -25.27180354 1.87668319 -25.4375 4.875 C-25.30317767 8.07255039 -25.30317767 8.07255039 -23.1015625 9.95703125 C-18.20723109 13.18087927 -12.74426311 14.85944978 -7.21679688 16.73632812 C-2.90962349 18.32790074 0.1894049 19.50211667 2.62109375 23.5390625 C4.28041974 27.70382973 4.24700375 29.71342461 3 34 C0.2423643 39.62557683 -3.24452398 42.00969279 -9 44 C-17.03966922 46.18583186 -25.66670895 44.43895616 -32.859375 40.390625 C-33.56578125 39.93171875 -34.2721875 39.4728125 -35 39 C-34.85904936 37.3745692 -34.71207913 35.74965949 -34.5625 34.125 C-34.48128906 33.22007812 -34.40007812 32.31515625 -34.31640625 31.3828125 C-34 29 -34 29 -33 27 C-30 28 -30 28 -29.11328125 29.70703125 C-28.84902344 30.40183594 -28.58476562 31.09664062 -28.3125 31.8125 C-26.37639399 35.88197564 -24.42293871 37.63871737 -20.28515625 39.37890625 C-14.99089183 40.81786017 -10.05327126 40.79616641 -4.9375 38.8125 C-2.58270747 36.60962957 -2.25689948 35.16842693 -2 32 C-6.61344206 27.81005751 -11.31661013 26.25518436 -17.1171875 24.37695312 C-22.86868857 22.38563153 -26.03012499 19.42951252 -29.875 14.6875 C-31.44665604 10.93298836 -31.21790891 7.79482592 -30 4 C-28.18467915 0.82318852 -25.92955888 -1.41570584 -22.8125 -3.375 C-14.50186271 -5.22180829 -7.51052172 -3.95746721 0 0 Z " fill="#B32257" transform="translate(217,211)"/>
<path d="M0 0 C4.77235317 3.29003135 6.53188641 6.93717631 8.0625 12.421875 C6.01551586 14.46885914 1.75838759 14.12233193 -0.9375 14.421875 C-0.174375 14.9375 0.58875 15.453125 1.375 15.984375 C4.64433446 18.94958532 5.7776147 21.21030653 7.0625 25.421875 C7.23731582 30.22931015 5.98416862 32.94030278 3.0625 36.609375 C-1.62542232 41.5465529 -7.06017967 44.51755987 -13.9375 44.859375 C-21.74751068 44.36350131 -27.39605539 41.56648352 -33.2109375 36.43359375 C-37.41259468 31.53799771 -38.46922736 26.86833408 -38.375 20.546875 C-38.36742676 19.83942139 -38.35985352 19.13196777 -38.35205078 18.40307617 C-38.1149465 10.89621606 -36.34072165 6.87971532 -31.1875 1.609375 C-21.36420419 -5.00245872 -10.48819446 -5.98364941 0 0 Z M-27.9375 4.421875 C-30.49311955 8.97322572 -31.32974775 13.19190496 -30.9375 18.421875 C-23.59113502 19.0503663 -18.79310082 18.2987213 -12.375 14.66796875 C-8.66891024 12.77334914 -5.01950415 12.14610154 -0.9375 11.421875 C-3.88825325 5.21188066 -7.35800972 0.7904915 -13.9375 -1.578125 C-20.43708656 -2.64169371 -23.9212353 -0.47651502 -27.9375 4.421875 Z M-18.9140625 18.46484375 C-22.9558618 19.74422467 -26.71755857 20.14054557 -30.9375 20.421875 C-29.32393694 27.9211014 -26.84109906 33.3652591 -20.9375 38.421875 C-15.36807054 41.20658973 -10.12228803 41.12545081 -4.25 39.234375 C-0.67492798 37.27820352 0.99674826 35.91776257 3.0625 32.421875 C4.61844902 26.82045853 3.87821155 23.4707371 1.0625 18.421875 C-1.24237142 15.87005308 -2.52851041 15.48151932 -5.9375 14.984375 C-10.51074294 15.16102387 -14.64482163 16.94318737 -18.9140625 18.46484375 Z " fill="#B02155" transform="translate(171.9375,210.578125)"/>
<path d="M0 0 C4.29 0 8.58 0 13 0 C12.67 1.32 12.34 2.64 12 4 C11.90137943 5.8513107 11.85457838 7.70567544 11.84228516 9.55957031 C11.82689194 11.23215912 11.82689194 11.23215912 11.81118774 12.9385376 C11.80388641 14.13960144 11.79658508 15.34066528 11.7890625 16.578125 C11.76099115 19.12630848 11.73232667 21.67448548 11.703125 24.22265625 C11.66189536 28.23616527 11.62395738 32.24954605 11.59863281 36.26318359 C11.57096366 40.13925091 11.52508832 44.01477007 11.4765625 47.890625 C11.47330963 49.08359192 11.47005676 50.27655884 11.46670532 51.50567627 C11.35138491 59.35545638 10.89589931 65.65857772 5.5625 71.8125 C4.2940625 72.8953125 4.2940625 72.8953125 3 74 C2.4225 74.556875 1.845 75.11375 1.25 75.6875 C-2.2437867 77.72554224 -6.05060573 78.28269549 -10 79 C-10.66 78.01 -11.32 77.02 -12 76 C-10.7625 75.649375 -9.525 75.29875 -8.25 74.9375 C-4.94462474 73.70895344 -3.33252313 72.62878542 -1.5625 69.5625 C0.49683508 64.86721601 1.1253575 61.40717188 1.12939453 56.28515625 C1.13254669 55.13716553 1.13569885 53.9891748 1.13894653 52.80639648 C1.1369223 51.57091064 1.13489807 50.3354248 1.1328125 49.0625 C1.13376923 47.79027588 1.13472595 46.51805176 1.13571167 45.20727539 C1.13639219 42.51738075 1.13504897 39.82757697 1.13037109 37.13769531 C1.12467407 33.6944565 1.12795555 30.25129565 1.13394356 26.80805969 C1.13843132 23.51787035 1.13528676 20.22769036 1.1328125 16.9375 C1.13483673 15.70201416 1.13686096 14.46652832 1.13894653 13.19360352 C1.13579437 12.04561279 1.13264221 10.89762207 1.12939453 9.71484375 C1.12859894 8.70542725 1.12780334 7.69601074 1.12698364 6.65600586 C1.07466851 3.743541 1.07466851 3.743541 0 0 Z " fill="#BA225A" transform="translate(118,186)"/>
<path d="M0 0 C1 1 1 1 1.125 4.375 C1 8 1 8 0 11 C-3.35620271 9.61122646 -5.07298728 8.08322035 -7 5 C-7 4.34 -7 3.68 -7 3 C-7.86625 2.566875 -7.86625 2.566875 -8.75 2.125 C-10.12082552 1.43958724 -11.47772008 0.72391502 -12.8046875 -0.04296875 C-17.03222082 -1.88593256 -21.49665658 -1.62002554 -26 -1 C-30.04164735 0.74488791 -32.17236415 3.8527001 -33.875 7.8125 C-36.53487266 16.34957631 -34.60208333 23.06045993 -31 31 C-28.16270183 35.69621765 -25.21264985 37.34932755 -20 39 C-13.75805154 39.69354983 -9.15120682 38.72362064 -4 35 C-2.13689678 32.39975951 -2.13689678 32.39975951 -1 30 C-0.34 30 0.32 30 1 30 C0.35883485 35.32167071 -1.80466821 37.19754871 -5.8203125 40.484375 C-10.96729123 44.06327777 -16.87039415 44.72943486 -23 44 C-30.32312221 42.42973988 -35.87842641 38.06856782 -40.390625 32.1875 C-43.75389493 26.50310012 -43.95137202 20.42796574 -43 14 C-40.60895069 6.66405723 -37.02462241 1.77765643 -30.26171875 -1.9609375 C-20.25257999 -6.4785198 -9.71587551 -4.1073905 0 0 Z " fill="#BB225A" transform="translate(321,211)"/>
<path d="M0 0 C0.02505615 1.25135742 0.0501123 2.50271484 0.07592773 3.79199219 C0.17012563 8.43630143 0.27031619 13.08046543 0.37231445 17.72460938 C0.41561644 19.73434043 0.45729488 21.74410715 0.49731445 23.75390625 C0.55513165 26.64333848 0.61879324 29.53259198 0.68359375 32.421875 C0.70030624 33.31992859 0.71701874 34.21798218 0.73423767 35.14324951 C0.75418289 35.98381897 0.77412811 36.82438843 0.79467773 37.69042969 C0.81022202 38.42767273 0.8257663 39.16491577 0.84178162 39.92449951 C0.96809294 42.34863402 0.96809294 42.34863402 2 46 C-1.96 46 -5.92 46 -10 46 C-9.67 44.68 -9.34 43.36 -9 42 C-8.90485068 39.28267912 -8.85989587 36.59198523 -8.8671875 33.875 C-8.86623077 33.09108887 -8.86527405 32.30717773 -8.86428833 31.49951172 C-8.86360912 29.84537679 -8.86544531 28.19123916 -8.86962891 26.53710938 C-8.87498083 24.00905353 -8.86967515 21.48117534 -8.86328125 18.953125 C-8.86394208 17.34374961 -8.86522334 15.73437433 -8.8671875 14.125 C-8.86516327 13.3707373 -8.86313904 12.61647461 -8.86105347 11.83935547 C-8.87627436 8.42287199 -8.92409603 5.26510679 -10 2 C-6.45648927 0.38010938 -3.87280581 -0.10414268 0 0 Z " fill="#CF1E5F" transform="translate(274,208)"/>
<path d="M0 0 C2.73647818 1.18215857 4.315832 2.003332 6.4375 4.125 C6.44921875 6.18359375 6.44921875 6.18359375 6.125 8.5625 C6.02574219 9.34496094 5.92648437 10.12742188 5.82421875 10.93359375 C5.4375 13.125 5.4375 13.125 4.4375 16.125 C0.65038986 14.86262995 0.48838728 13.76757307 -1.3125 10.3125 C-4.1879077 5.35685908 -6.16056685 3.1151859 -11.5625 1.125 C-16.63886143 1.24590046 -16.63886143 1.24590046 -20.5625 4.125 C-21.1463196 7.0399255 -21.1463196 7.0399255 -20.5625 10.125 C-16.68034743 14.52477292 -10.9486546 16.15879211 -5.5625 18.125 C-10.37974756 19.71982572 -14.10340965 18.22759598 -18.5625 16.125 C-20.54528374 14.58537299 -21.93818319 13.06370071 -23.5625 11.125 C-23.23808396 12.79342534 -22.90310811 14.45980481 -22.5625 16.125 C-22.48 16.846875 -22.3975 17.56875 -22.3125 18.3125 C-21.7167091 20.33503626 -21.7167091 20.33503626 -19.51953125 21.05859375 C-17.25332298 21.87586569 -14.98496941 22.68593585 -12.71484375 23.4921875 C-12.02712891 23.73839844 -11.33941406 23.98460937 -10.63085938 24.23828125 C-9.20927566 24.74645508 -7.78474539 25.24645966 -6.35742188 25.73828125 C-2.21882657 27.23827917 0.54230712 28.65076855 3.4375 32.125 C3.1075 33.115 2.7775 34.105 2.4375 35.125 C1.77621094 34.361875 1.11492187 33.59875 0.43359375 32.8125 C-2.76382999 29.61620172 -6.26220016 28.47857767 -10.5 27.125 C-16.22418285 25.28642026 -20.19414978 23.33498103 -24.5625 19.125 C-26.85650575 14.53698851 -26.88343039 11.05647347 -25.5625 6.125 C-19.63001698 -3.5484891 -9.88439217 -3.84472729 0 0 Z " fill="#B02256" transform="translate(253.5625,208.875)"/>
<path d="M0 0 C2.31 0 4.62 0 7 0 C6.67 0.99 6.34 1.98 6 3 C5.90349127 4.844029 5.86458202 6.69130028 5.8581543 8.5378418 C5.85111984 9.67299728 5.84408539 10.80815277 5.83683777 11.97770691 C5.83267349 13.20580582 5.82850922 14.43390472 5.82421875 15.69921875 C5.80101608 18.29623202 5.77689856 20.89323726 5.75195312 23.49023438 C5.71562363 27.58715799 5.68582822 31.68393273 5.67407227 35.78100586 C5.66199057 39.73318889 5.61833275 43.68476025 5.57421875 47.63671875 C5.57612717 48.8546965 5.57803558 50.07267426 5.58000183 51.32756042 C5.48013734 58.2971871 4.90849189 63.13748391 1 69 C-0.485 69.495 -0.485 69.495 -2 70 C-1.67402832 69.1433374 -1.34805664 68.2866748 -1.01220703 67.40405273 C0.72590688 61.27236777 0.24488217 54.85089764 0.1953125 48.53515625 C0.19157708 47.1326874 0.18873261 45.73021593 0.18673706 44.32774353 C0.17914221 40.65673473 0.15952998 36.98588705 0.1373291 33.31494141 C0.11678072 29.56089456 0.10771621 25.80682139 0.09765625 22.05273438 C0.07627965 14.70174989 0.04219457 7.35089762 0 0 Z " fill="#D21C5F" transform="translate(121,188)"/>
<path d="M0 0 C1 3 1 3 0.1015625 5.23046875 C-1.25732654 8.64696636 -1.4195628 11.6488699 -1.625 15.3125 C-1.69976562 16.56675781 -1.77453125 17.82101563 -1.8515625 19.11328125 C-1.90054687 20.06589844 -1.94953125 21.01851562 -2 22 C-1.34 22 -0.68 22 0 22 C0.4125 23.0725 0.825 24.145 1.25 25.25 C3.16021719 29.66849303 5.29594431 32.22542923 9.75 34.25 C10.4925 34.4975 11.235 34.745 12 35 C11.566875 34.51789063 11.13375 34.03578125 10.6875 33.5390625 C10.130625 32.90742188 9.57375 32.27578125 9 31.625 C8.1646875 30.68527344 8.1646875 30.68527344 7.3125 29.7265625 C6 28 6 28 6 26 C5.34 26 4.68 26 4 26 C4 24.35 4 22.7 4 21 C3.34 21 2.68 21 2 21 C2 16.38 2 11.76 2 7 C2.33 7 2.66 7 3 7 C3.08636719 7.75023437 3.17273438 8.50046875 3.26171875 9.2734375 C4.30491709 16.87251533 5.73816293 24.96303373 11.5546875 30.47265625 C16.36328738 33.8099681 21.25676825 34.7357877 27 34 C31.33537337 32.5805895 34.2811076 31.05437553 36.875 27.25 C37.24625 26.5075 37.6175 25.765 38 25 C38.66 25 39.32 25 40 25 C39.35883485 30.32167071 37.19533179 32.19754871 33.1796875 35.484375 C28.03270877 39.06327777 22.12960585 39.72943486 16 39 C8.67687779 37.42973988 3.12157359 33.06856782 -1.390625 27.1875 C-4.75076194 21.50839531 -4.87354022 15.42556026 -4 9 C-2.95694844 5.81239846 -1.64992769 2.91683645 0 0 Z " fill="#B12256" transform="translate(282,216)"/>
<path d="M0 0 C1.9375 1 1.9375 1 4 3 C5.20198845 7.50745668 5.61090009 10.52819981 3.5 14.75 C0.02673996 19.93626245 -4.9125141 21.90172975 -10.75 23.375 C-19.33760531 24.83894489 -26.8498949 22.76673673 -34 18 C-33.88601335 16.37419034 -33.75844341 14.74932843 -33.625 13.125 C-33.55539063 12.22007812 -33.48578125 11.31515625 -33.4140625 10.3828125 C-33 8 -33 8 -31 6 C-30.48953125 6.90492188 -30.48953125 6.90492188 -29.96875 7.828125 C-26.53625274 13.48809388 -23.53076892 17.21563691 -17 19 C-11.2520206 19.83926355 -6.96859499 19.19409678 -2 16 C-0.98198643 15.01834406 0.0246803 14.02408568 1 13 C1.66 13 2.32 13 3 13 C2.88490339 11.58249437 2.75746342 10.16598831 2.625 8.75 C2.52058594 7.56664062 2.52058594 7.56664062 2.4140625 6.359375 C1.98492887 3.914123 1.21399362 2.15163097 0 0 Z " fill="#A41F4F" transform="translate(257,232)"/>
<path d="M0 0 C4.29 0 8.58 0 13 0 C12.67 1.32 12.34 2.64 12 4 C11.89652336 5.86179413 11.84441044 7.72672794 11.82641602 9.59130859 C11.81292618 10.71282318 11.79943634 11.83433777 11.78553772 12.98983765 C11.77509933 14.1971756 11.76466095 15.40451355 11.75390625 16.6484375 C11.7209714 19.20573264 11.6877597 21.76302422 11.65429688 24.3203125 C11.60584212 28.35151915 11.56200643 32.38275177 11.52319336 36.4140625 C11.48345757 40.30483881 11.43192025 44.19532263 11.37890625 48.0859375 C11.3704921 49.28922699 11.36207794 50.49251648 11.35340881 51.73226929 C11.33676682 52.8600882 11.32012482 53.9879071 11.30297852 55.14990234 C11.29267105 56.13711273 11.28236359 57.12432312 11.27174377 58.14144897 C10.96896707 61.32644429 10.11352614 64.00994115 9 67 C7.86912676 63.60738029 8.26526435 62.41614564 9 59 C9.11050984 57.06859833 9.17529944 55.13427883 9.20532227 53.19995117 C9.22526749 52.05914597 9.24521271 50.91834076 9.26576233 49.7429657 C9.28247482 48.52196671 9.29918732 47.30096771 9.31640625 46.04296875 C9.33718735 44.78486893 9.35796844 43.5267691 9.37937927 42.23054504 C9.43360465 38.89827714 9.48387945 35.56599761 9.53222656 32.23364258 C9.58261084 28.82823445 9.63820823 25.4229118 9.69335938 22.01757812 C9.80036699 15.34512033 9.90216524 8.67259826 10 2 C7.69 2 5.38 2 3 2 C3.00888245 2.74200653 3.01776489 3.48401306 3.0269165 4.24850464 C3.10743839 11.27965145 3.16815378 18.31063554 3.20724869 25.3421154 C3.22802442 28.95614345 3.25615513 32.56978695 3.30175781 36.18359375 C3.34557814 39.67847537 3.36921218 43.17298976 3.37950897 46.66812515 C3.39037481 48.63441341 3.42154181 50.60055623 3.45318604 52.56661987 C3.45508497 60.23788301 2.49849453 66.14340944 -1 73 C-1.495 73.99 -1.495 73.99 -2 75 C-0.02 74.505 -0.02 74.505 2 74 C-0.34591852 76.7710688 -2.14776201 77.52059284 -5.6875 78.1875 C-6.49574219 78.34605469 -7.30398437 78.50460937 -8.13671875 78.66796875 C-9.05904297 78.83232422 -9.05904297 78.83232422 -10 79 C-10.66 78.01 -11.32 77.02 -12 76 C-10.7625 75.649375 -9.525 75.29875 -8.25 74.9375 C-4.94462474 73.70895344 -3.33252313 72.62878542 -1.5625 69.5625 C0.49683508 64.86721601 1.1253575 61.40717188 1.12939453 56.28515625 C1.13254669 55.13716553 1.13569885 53.9891748 1.13894653 52.80639648 C1.1369223 51.57091064 1.13489807 50.3354248 1.1328125 49.0625 C1.13376923 47.79027588 1.13472595 46.51805176 1.13571167 45.20727539 C1.13639219 42.51738075 1.13504897 39.82757697 1.13037109 37.13769531 C1.12467407 33.6944565 1.12795555 30.25129565 1.13394356 26.80805969 C1.13843132 23.51787035 1.13528676 20.22769036 1.1328125 16.9375 C1.13483673 15.70201416 1.13686096 14.46652832 1.13894653 13.19360352 C1.13579437 12.04561279 1.13264221 10.89762207 1.12939453 9.71484375 C1.12859894 8.70542725 1.12780334 7.69601074 1.12698364 6.65600586 C1.07466851 3.743541 1.07466851 3.743541 0 0 Z " fill="#A51F4F" transform="translate(118,186)"/>
<path d="M0 0 C4.05283743 1.35094581 4.87056128 3.37995418 7 7 C8.31498015 10.73847332 8.11324827 14.46143616 8.09765625 18.390625 C8.0962413 19.09523865 8.09482635 19.79985229 8.09336853 20.52581787 C8.08778933 22.76725584 8.07524073 25.00859243 8.0625 27.25 C8.05748231 28.77343605 8.05291987 30.29687368 8.04882812 31.8203125 C8.03782674 35.54690772 8.02057646 39.27344396 8 43 C6.35 42.67 4.7 42.34 3 42 C2.98018066 40.86981445 2.96036133 39.73962891 2.93994141 38.57519531 C2.8638112 34.37803036 2.77510521 30.18120874 2.68261719 25.984375 C2.64435809 24.16868879 2.60949983 22.35292759 2.578125 20.53710938 C2.5324077 17.92550877 2.47442464 15.31442312 2.4140625 12.703125 C2.39673569 11.48728729 2.39673569 11.48728729 2.37905884 10.24688721 C2.27821844 6.38735276 2.18888974 3.27181414 0 0 Z " fill="#D01D5F" transform="translate(357,210)"/>
<path d="M0 0 C0.33 0.66 0.66 1.32 1 2 C3.64 1.34 6.28 0.68 9 0 C8.67 0.99 8.34 1.98 8 3 C5.36 3.33 2.72 3.66 0 4 C0.763125 4.515625 1.52625 5.03125 2.3125 5.5625 C5.58183446 8.52771032 6.7151147 10.78843153 8 15 C8.22125569 21.08453139 5.72526423 24.03795853 1.7890625 28.30078125 C-1.77497078 31.68583469 -3.89455671 32.23777514 -8.6875 32.125 C-9.68136719 32.10695312 -10.67523438 32.08890625 -11.69921875 32.0703125 C-12.83810547 32.03550781 -12.83810547 32.03550781 -14 32 C-14 31.67 -14 31.34 -14 31 C-13.43152344 30.99742187 -12.86304688 30.99484375 -12.27734375 30.9921875 C-6.66202507 30.71095284 -3.42377723 29.55649122 0.62109375 25.60546875 C3.55752317 22.1865665 4.05263781 19.98257254 3.8125 15.5 C3.01356174 12.0584198 2.08176011 9.83119375 0 7 C-3.96863254 5.01568373 -7.72118508 5.59326581 -11.8125 6.89453125 C-13.3284375 7.44173828 -13.3284375 7.44173828 -14.875 8 C-20.22606999 9.91398473 -24.35176326 10.37654912 -30 10 C-30 9.34 -30 8.68 -30 8 C-28.98292969 7.97873047 -28.98292969 7.97873047 -27.9453125 7.95703125 C-21.49815428 7.62663672 -17.06105869 6.3291287 -11.4375 3.2109375 C-7.7251849 1.3666784 -4.06694662 0.72155504 0 0 Z " fill="#9F204E" transform="translate(171,221)"/>
<path d="M0 0 C0.33 0.99 0.66 1.98 1 3 C1.495 2.649375 1.99 2.29875 2.5 1.9375 C6.13998414 0.57250595 9.3282712 1.03785141 13 2 C17.27504122 4.09719003 19.88192482 6.23485055 21.52734375 10.81640625 C23.08143588 17.99605502 22.94381802 25.04777363 19.12890625 31.44140625 C17.56302521 33.60329738 16.45456732 34.87791208 14 36 C9.61060262 36.38503486 7.71013399 36.47342266 4 34 C5.03060547 33.85304688 5.03060547 33.85304688 6.08203125 33.703125 C6.98308594 33.55359375 7.88414062 33.4040625 8.8125 33.25 C9.70582031 33.11078125 10.59914063 32.9715625 11.51953125 32.828125 C15.27613013 31.57395341 16.36896199 29.16243844 18.1875 25.8125 C19.66409785 20.70119975 19.71389311 15.94337569 17.875 10.9375 C16.12159646 8.76321036 16.12159646 8.76321036 13.3125 8.4375 C9.04893785 9.16150112 5.73321767 10.87756153 2 13 C3 11 4 9 5 7 C6.33333333 6.66666667 7.66666667 6.33333333 9 6 C9.33 5.34 9.66 4.68 10 4 C6.7 4 3.4 4 0 4 C0 2.68 0 1.36 0 0 Z " fill="#A21F4E" transform="translate(333,215)"/>
<path d="M0 0 C0.99 0.495 0.99 0.495 2 1 C2 1.66 2 2.32 2 3 C2.61488281 3.20496094 3.22976562 3.40992188 3.86328125 3.62109375 C8.93164062 5.31054688 8.93164062 5.31054688 14 7 C14 7.66 14 8.32 14 9 C14.99 9.04125 15.98 9.0825 17 9.125 C21.77224652 9.80814367 25.88374983 12.34144136 29 16 C29.22265625 18.703125 29.22265625 18.703125 29 21 C28.05125 20.5875 27.1025 20.175 26.125 19.75 C23.08381338 18.44222806 20.01812615 17.21174402 16.9375 16 C10.53908983 13.43094137 5.74877032 11.15580778 1 6 C0.67 5.67 0.34 5.34 0 5 C-0.04063832 3.33382885 -0.042721 1.66611905 0 0 Z " fill="#D41B5F" transform="translate(189,220)"/>
<path d="M0 0 C1.65 0 3.3 0 5 0 C5.02505615 1.25135742 5.0501123 2.50271484 5.07592773 3.79199219 C5.17012563 8.43630143 5.27031619 13.08046543 5.37231445 17.72460938 C5.41561644 19.73434043 5.45729488 21.74410715 5.49731445 23.75390625 C5.55513165 26.64333848 5.61879324 29.53259198 5.68359375 32.421875 C5.70030624 33.31992859 5.71701874 34.21798218 5.73423767 35.14324951 C5.75418289 35.98381897 5.77412811 36.82438843 5.79467773 37.69042969 C5.81022202 38.42767273 5.8257663 39.16491577 5.84178162 39.92449951 C5.96809294 42.34863402 5.96809294 42.34863402 7 46 C3.04 46 -0.92 46 -5 46 C-4.67 44.68 -4.34 43.36 -4 42 C-3.90485068 39.28267912 -3.85989587 36.59198523 -3.8671875 33.875 C-3.86623077 33.09108887 -3.86527405 32.30717773 -3.86428833 31.49951172 C-3.86360912 29.84537679 -3.86544531 28.19123916 -3.86962891 26.53710938 C-3.87498083 24.00905353 -3.86967515 21.48117534 -3.86328125 18.953125 C-3.86394208 17.34374961 -3.86522334 15.73437433 -3.8671875 14.125 C-3.86516327 13.3707373 -3.86313904 12.61647461 -3.86105347 11.83935547 C-3.87627436 8.42287199 -3.92409603 5.26510679 -5 2 C-3.68 1.67 -2.36 1.34 -1 1 C-1 1.66 -1 2.32 -1 3 C-1.66 3 -2.32 3 -3 3 C-2.67 3.66 -2.34 4.32 -2 5 C-1.91294854 7.98970289 -1.88449855 10.95584955 -1.90234375 13.9453125 C-1.9037587 14.8303244 -1.90517365 15.7153363 -1.90663147 16.62716675 C-1.9122386 19.45981191 -1.92479229 22.29237864 -1.9375 25.125 C-1.94251408 27.04296761 -1.94707715 28.96093646 -1.95117188 30.87890625 C-1.96221034 35.58596782 -1.97947975 40.2929706 -2 45 C0.475 44.505 0.475 44.505 3 44 C3 29.81 3 15.62 3 1 C2.01 0.67 1.02 0.34 0 0 Z " fill="#AD2154" transform="translate(269,208)"/>
<path d="M0 0 C1.14095044 3.42285131 0.74568735 4.54449457 0 8 C-0.21698487 10.43505237 -0.40290745 12.87301384 -0.5625 15.3125 C-0.64628906 16.56675781 -0.73007812 17.82101563 -0.81640625 19.11328125 C-0.87699219 20.06589844 -0.93757813 21.01851562 -1 22 C-0.34 22 0.32 22 1 22 C1 23.65 1 25.3 1 27 C1.66 27 2.32 27 3 27 C3.12375 27.928125 3.12375 27.928125 3.25 28.875 C3.79394438 31.17972859 3.79394438 31.17972859 6 32.0625 C6.66 32.371875 7.32 32.68125 8 33 C8.33 33.99 8.66 34.98 9 36 C3.82483834 34.89103679 1.42576746 32.72127801 -1.8984375 28.8515625 C-3 27 -3 27 -3 23 C-3.66 23 -4.32 23 -5 23 C-5.56880688 8.00035195 -5.56880688 8.00035195 -2 1 C-1.34 0.67 -0.68 0.34 0 0 Z " fill="#D21C5F" transform="translate(285,215)"/>
<path d="M0 0 C0.33 0 0.66 0 1 0 C1.03738281 1.14597656 1.07476562 2.29195312 1.11328125 3.47265625 C1.17898584 5.00263446 1.24543159 6.53258097 1.3125 8.0625 C1.33505859 8.81466797 1.35761719 9.56683594 1.38085938 10.34179688 C1.73537415 17.78660725 3.53536543 22.7238011 9 28 C9 28.99 9 29.98 9 31 C3.47276941 31.36848204 3.47276941 31.36848204 1.40625 29.7578125 C-3.60856051 23.48929936 -3.34775389 14.72099926 -3.3984375 7.1015625 C-2.9722183 3.78373857 -2.30527101 2.37548231 0 0 Z " fill="#CF1D5E" transform="translate(139,219)"/>
<path d="M0 0 C3 1 3 1 4.02734375 2.70703125 C4.32769531 3.40183594 4.62804687 4.09664062 4.9375 4.8125 C7.21797347 9.62300819 9.1432711 12.2858735 14.25 14.25 C15.1575 14.4975 16.065 14.745 17 15 C17 15.99 17 16.98 17 18 C9.90970159 17.00944361 4.24573162 15.53531978 -2 12 C-1.85904936 10.3745692 -1.71207913 8.74965949 -1.5625 7.125 C-1.48128906 6.22007812 -1.40007812 5.31515625 -1.31640625 4.3828125 C-1 2 -1 2 0 0 Z " fill="#B02256" transform="translate(184,238)"/>
<path d="M0 0 C2.49451725 2.01937111 3.10757336 3.31139658 4.1875 6.4375 C6.31901402 10.62702755 7.88443609 11.42700829 12.0625 13.17578125 C14 14 14 14 17 16 C9.43801103 16.44701413 4.23664375 16.53574091 -2 12 C-1.85904936 10.3745692 -1.71207913 8.74965949 -1.5625 7.125 C-1.48128906 6.22007812 -1.40007812 5.31515625 -1.31640625 4.3828125 C-1 2 -1 2 0 0 Z " fill="#AF2255" transform="translate(225,238)"/>
<path d="M0 0 C0.36075949 5.41139241 0.36075949 5.41139241 -1.1875 7.9375 C-3 9 -3 9 -5.5625 8.8125 C-8 8 -8 8 -10 6 C-9.625 2.375 -9.625 2.375 -9 -1 C-5.23375329 -2.25541557 -3.62811066 -1.37061958 0 0 Z " fill="#BC2059" transform="translate(274,192)"/>
<path d="M0 0 C-2.375 1.0625 -2.375 1.0625 -5 2 C-5.66 1.67 -6.32 1.34 -7 1 C-12.01187977 0.42674578 -17.28317469 -0.17326753 -21.5 3 C-24.51207283 6.6144874 -25.63390101 9.52223109 -27 14 C-27.33 14 -27.66 14 -28 14 C-28 11.69 -28 9.38 -28 7 C-28.66 6.67 -29.32 6.34 -30 6 C-22.14219627 -1.26846845 -10.13251633 -6.05538476 0 0 Z " fill="#9D214E" transform="translate(313,209)"/>
<path d="M0 0 C0.33 0 0.66 0 1 0 C1.05607422 1.22976562 1.05607422 1.22976562 1.11328125 2.484375 C1.21189453 4.10085937 1.21189453 4.10085937 1.3125 5.75 C1.37050781 6.81734375 1.42851562 7.8846875 1.48828125 8.984375 C2.03660906 12.21574195 2.93125269 13.53746969 5 16 C5 16.66 5 17.32 5 18 C5.99 18.33 6.98 18.66 8 19 C8 19.33 8 19.66 8 20 C5.8125 20.375 5.8125 20.375 3 20 C-0.65261452 16.43233 -3.15900308 13.15110611 -4 8 C-3.20735927 5.1035835 -2.16213141 2.16213141 0 0 Z " fill="#D41B5F" transform="translate(329,232)"/>
<path d="M0 0 C0.33 0.99 0.66 1.98 1 3 C1.495 2.649375 1.99 2.29875 2.5 1.9375 C6.12320344 0.57879871 9.34734301 0.99936791 13 2 C15.22780837 3.16090436 17.00143662 4.45111338 19 6 C18.34 6.66 17.68 7.32 17 8 C16.154375 7.938125 15.30875 7.87625 14.4375 7.8125 C9.51214492 8.08115573 6.12244838 10.43492101 2 13 C3 11 4 9 5 7 C6.33333333 6.66666667 7.66666667 6.33333333 9 6 C9.33 5.34 9.66 4.68 10 4 C6.7 4 3.4 4 0 4 C0 2.68 0 1.36 0 0 Z " fill="#9F214E" transform="translate(333,215)"/>
<path d="M0 0 C0.66 0.66 1.32 1.32 2 2 C-1.93809243 3.18507411 -5.493626 2.95307426 -9.5625 2.7421875 C-12.56664701 3.05993382 -13.80810043 3.96158136 -16 6 C-16.7734375 7.3303125 -16.7734375 7.3303125 -17.5625 8.6875 C-18.2740625 9.8321875 -18.2740625 9.8321875 -19 11 C-19.99 11 -20.98 11 -22 11 C-22.36067893 6.55162659 -22.36067893 6.55162659 -20.9375 4.375 C-14.3821513 -0.27718295 -7.91643585 -0.92498568 0 0 Z " fill="#99224D" transform="translate(356,207)"/>
<path d="M0 0 C0.66 0 1.32 0 2 0 C1.36448448 5.34201451 -0.84805113 7.25890694 -4.89453125 10.5390625 C-7.79055097 12.54854557 -9.45039837 13.14198407 -13 13 C-16.43227463 12.25066371 -19.76553527 11.38271844 -23 10 C-23.33 9.34 -23.66 8.68 -24 8 C-23.34 8.165 -22.68 8.33 -22 8.5 C-15.31331618 9.6144473 -10.64530971 9.47341763 -4.69140625 6.22265625 C-2.37270164 4.54654876 -1.26472589 2.52945177 0 0 Z " fill="#9F204E" transform="translate(320,241)"/>
<path d="M0 0 C1.125 1.75 1.125 1.75 2 4 C0.81241806 7.32263361 -0.55674544 8.69999971 -3.6875 10.25 C-7.67412809 12.1157711 -10.64671991 12.36277334 -15 12 C-15 11.34 -15 10.68 -15 10 C-15.969375 9.87625 -16.93875 9.7525 -17.9375 9.625 C-18.948125 9.41875 -19.95875 9.2125 -21 9 C-21.33 8.34 -21.66 7.68 -22 7 C-21.38125 7.165 -20.7625 7.33 -20.125 7.5 C-14.63271589 8.37876546 -9.23885702 8.88621424 -4 6.8125 C-1.68303967 4.7127547 -0.88406273 2.97366555 0 0 Z " fill="#A1204E" transform="translate(216,243)"/>
<path d="M0 0 C0.66 0.33 1.32 0.66 2 1 C0.47793991 3.62901288 -0.84365964 5.84365964 -3 8 C-3 7.01 -3 6.02 -3 5 C-6.38802069 6.75242449 -7.54025274 8.79255027 -8.8125 12.25 C-10.43802517 17.72171315 -10.14721956 21.84322723 -7.4375 26.9375 C-6.963125 27.618125 -6.48875 28.29875 -6 29 C-8.38344648 28.04662141 -9.73221369 27.43148607 -11.10546875 25.21875 C-12.97986801 20.56958502 -12.93760204 15.4151624 -11.125 10.74609375 C-8.28052032 5.81503851 -4.78385085 3.00163191 0 0 Z " fill="#AA2052" transform="translate(336,223)"/>
<path d="M0 0 C1.9375 0.6875 1.9375 0.6875 4 2 C5.86699428 6.53412897 4.2990404 10.49156565 3 15 C0 14 0 14 -1.0625 12.29296875 C-1.371875 11.59816406 -1.68125 10.90335938 -2 10.1875 C-3.40795887 7.17121888 -4.85515506 4.57381392 -7 2 C-4.50638429 3.20381448 -2.31856917 4.45428722 0 6 C0 6.66 0 7.32 0 8 C0.66 7.67 1.32 7.34 2 7 C2 5.68 2 4.36 2 3 C1.34 2.67 0.68 2.34 0 2 C0 1.34 0 0.68 0 0 Z " fill="#AD2153" transform="translate(214,210)"/>
<path d="M0 0 C3.14737182 0.69941596 6.02588876 1.76078698 9 3 C9 5.64 9 8.28 9 11 C8.01 11 7.02 11 6 11 C4.39453125 8.84765625 4.39453125 8.84765625 2.8125 6.0625 C2.28269531 5.14597656 1.75289062 4.22945312 1.20703125 3.28515625 C0 1 0 1 0 0 Z " fill="#D21C5F" transform="translate(249,210)"/>
<path d="M0 0 C1.67299959 0.65061095 3.33859237 1.32033324 5 2 C5.66 2.2475 6.32 2.495 7 2.75 C10.1117467 4.69484169 11.86280285 7.00792398 14 10 C13.67 10.99 13.34 11.98 13 13 C12.01 13 11.02 13 10 13 C9.67 11.68 9.34 10.36 9 9 C8.34 9 7.68 9 7 9 C5.62926214 7.36395804 4.29944744 5.69321939 3 4 C2.4225 3.4225 1.845 2.845 1.25 2.25 C0.8375 1.8375 0.425 1.425 0 1 C0 0.67 0 0.34 0 0 Z " fill="#D01D5F" transform="translate(163,209)"/>
<path d="M0 0 C0.721875 0.78375 1.44375 1.5675 2.1875 2.375 C7.26800963 7.11680899 12.3224449 7.44717409 19 8 C19 8.99 19 9.98 19 11 C11.90970159 10.00944361 6.24573162 8.53531978 0 5 C0 3.35 0 1.7 0 0 Z " fill="#AF2255" transform="translate(182,245)"/>
<path d="M0 0 C1.9375 0.6875 1.9375 0.6875 4 2 C5.86699428 6.53412897 4.2990404 10.49156565 3 15 C-0.79007726 13.73664091 -1.18073712 12.46740258 -3.125 9.0625 C-3.64320313 8.16660156 -4.16140625 7.27070313 -4.6953125 6.34765625 C-5.49208952 4.91393472 -6.26645913 3.46708174 -7 2 C-2.97449681 3.3418344 -2.11714364 5.4227573 0 9 C0 9.66 0 10.32 0 11 C0.99 11 1.98 11 3 11 C2.87625 9.741875 2.7525 8.48375 2.625 7.1875 C2.55539062 6.47980469 2.48578125 5.77210938 2.4140625 5.04296875 C2.07334609 2.70011858 2.07334609 2.70011858 0 0 Z " fill="#A51F4F" transform="translate(255,210)"/>
<path d="M0 0 C0 0.99 0 1.98 0 3 C-0.64066406 2.94199219 -1.28132812 2.88398438 -1.94140625 2.82421875 C-8.75259771 2.46894051 -11.85421741 3.52540645 -17 8 C-17 6.35 -17 4.7 -17 3 C-11.06108578 0.4084738 -6.45892714 -0.40368295 0 0 Z " fill="#99224E" transform="translate(161,207)"/>
<path d="M0 0 C2.9375 1.5625 2.9375 1.5625 5 3 C0.71140501 4.42953166 -2.62583824 3.83760544 -7 3 C-7.66 2.67 -8.32 2.34 -9 2 C-9 1.34 -9 0.68 -9 0 C-5.84760408 -1.57619796 -3.38428252 -0.68832865 0 0 Z " fill="#B72359" transform="translate(251,208)"/>
<path d="M0 0 C-2.67953841 2.67953841 -5.39665745 2.97047356 -9 4 C-11.5654594 6.5654594 -11.54046087 8.47686668 -12 12 C-12.99 10.68 -13.98 9.36 -15 8 C-12.52338049 1.06546536 -6.8003924 -0.54403139 0 0 Z " fill="#A1204F" transform="translate(244,207)"/>
<path d="M0 0 C3.14737182 0.69941596 6.02588876 1.76078698 9 3 C8.67 4.65 8.34 6.3 8 8 C7.34 8 6.68 8 6 8 C6 7.34 6 6.68 6 6 C5.38125 5.7525 4.7625 5.505 4.125 5.25 C1.64931313 3.79371361 1.04874998 2.62187494 0 0 Z " fill="#D11D5F" transform="translate(208,210)"/>
<path d="M0 0 C-2.67953841 2.67953841 -5.39665745 2.97047356 -9 4 C-11.35953094 6.35953094 -11.49141413 7.77895617 -12 11 C-12.33 10.01 -12.66 9.02 -13 8 C-13.66 8 -14.32 8 -15 8 C-13.60415208 4.62670085 -12.07634389 2.95767338 -9 1 C-5.8035914 -0.06546953 -3.34252724 -0.07427838 0 0 Z " fill="#9C214E" transform="translate(203,207)"/>
<path d="M0 0 C3 0 3 0 5.1875 1.875 C7 4 7 4 7 6 C8.32 6 9.64 6 11 6 C11 6.66 11 7.32 11 8 C6.66956925 7.49646154 3.45523687 6.74386457 0 4 C0 2.68 0 1.36 0 0 Z " fill="#CF1E5F" transform="translate(184,245)"/>
<path d="M0 0 C1.32 0.66 2.64 1.32 4 2 C2.1875 5 2.1875 5 0 8 C-0.99 8 -1.98 8 -3 8 C-3.36923077 3.44615385 -3.36923077 3.44615385 -1.5 1.1875 C-1.005 0.795625 -0.51 0.40375 0 0 Z " fill="#AB2254" transform="translate(337,210)"/>
<path d="M0 0 C2.31 0 4.62 0 7 0 C7 0.99 7 1.98 7 3 C2.77777778 6 2.77777778 6 0 6 C0 4.02 0 2.04 0 0 Z " fill="#97234D" transform="translate(229,267)"/>
<path d="M0 0 C0.66 0 1.32 0 2 0 C1.83757812 0.55816406 1.67515625 1.11632812 1.5078125 1.69140625 C0.28620921 7.24500276 0.53784843 13.51693163 2 19 C-0.25186597 17.21299644 -0.94608001 16.27330435 -1.51171875 13.40625 C-1.56972656 12.4471875 -1.62773437 11.488125 -1.6875 10.5 C-1.75324219 9.5409375 -1.81898438 8.581875 -1.88671875 7.59375 C-1.96809299 5.73056051 -2 3.86496564 -2 2 C-1.34 1.34 -0.68 0.68 0 0 Z " fill="#C1235D" transform="translate(331,228)"/>
<path d="M0 0 C1.1725131 0.95117134 2.33787015 1.91117009 3.5 2.875 C4.47453125 3.67550781 4.47453125 3.67550781 5.46875 4.4921875 C5.9740625 4.98976562 6.479375 5.48734375 7 6 C7 6.66 7 7.32 7 8 C3.62537285 7.45276317 1.91765 6.9451 -1 5 C-0.67 3.35 -0.34 1.7 0 0 Z " fill="#D21D5F" transform="translate(226,244)"/>
<path d="M0 0 C-0.61875 0.70125 -1.2375 1.4025 -1.875 2.125 C-4.0427009 5.05777181 -5.02655555 7.51182406 -6 11 C-6.33 11 -6.66 11 -7 11 C-7 8.69 -7 6.38 -7 4 C-7.66 3.67 -8.32 3.34 -9 3 C-6.40821726 0.40821726 -3.54324677 -1.77162338 0 0 Z " fill="#AF2155" transform="translate(292,212)"/>
<path d="M0 0 C2.875 0.3125 2.875 0.3125 6 1 C6.66 1.99 7.32 2.98 8 4 C5.13822943 5.43088528 3.06624227 4.59991697 0 4 C0 2.68 0 1.36 0 0 Z " fill="#721938" transform="translate(344,218)"/>
<path d="M0 0 C1 2 1 2 0.0625 5.125 C-0.288125 6.07375 -0.63875 7.0225 -1 8 C-2.32 8 -3.64 8 -5 8 C-4.45773019 4.20411134 -2.79872437 2.52788007 0 0 Z " fill="#B82359" transform="translate(144,211)"/>
<path d="M0 0 C1.65 0 3.3 0 5 0 C4.49396008 2.16874252 4.00016187 3.99967627 3 6 C2.34 6 1.68 6 1 6 C0.67 4.02 0.34 2.04 0 0 Z " fill="#91254D" transform="translate(288,268)"/>
<path d="M0 0 C0.99 0.33 1.98 0.66 3 1 C3.125 7.625 3.125 7.625 2 11 C0.68 10.34 -0.64 9.68 -2 9 C-1.67 8.34 -1.34 7.68 -1 7 C-0.34 7 0.32 7 1 7 C1.15149298 3.37114676 1.15149298 3.37114676 0 0 Z " fill="#A01F4E" transform="translate(319,211)"/>
<path d="M0 0 C2.64 0.99 5.28 1.98 8 3 C7.67 3.66 7.34 4.32 7 5 C4.69 5 2.38 5 0 5 C0.66 4.34 1.32 3.68 2 3 C1.34 2.67 0.68 2.34 0 2 C0 1.34 0 0.68 0 0 Z " fill="#C2235E" transform="translate(334,248)"/>
<path d="M0 0 C1.485 0.99 1.485 0.99 3 2 C3.29296875 4.1640625 3.29296875 4.1640625 3.1875 6.625 C3.16042969 7.44226563 3.13335937 8.25953125 3.10546875 9.1015625 C3.07066406 9.72804687 3.03585937 10.35453125 3 11 C2.01 11.33 1.02 11.66 0 12 C0 10.68 0 9.36 0 8 C0.66 8 1.32 8 2 8 C1.34 5.36 0.68 2.72 0 0 Z " fill="#BC245B" transform="translate(257,234)"/>
<path d="M0 0 C2.97 0.99 5.94 1.98 9 3 C9 3.33 9 3.66 9 4 C6.03 4 3.06 4 0 4 C0 2.68 0 1.36 0 0 Z " fill="#BB255C" transform="translate(233,250)"/>
<path d="M0 0 C0 0.33 0 0.66 0 1 C-1.65 1 -3.3 1 -5 1 C-5 1.66 -5 2.32 -5 3 C-6.32 2.67 -7.64 2.34 -9 2 C-9 1.34 -9 0.68 -9 0 C-5.93109813 -1.53445094 -3.29905734 -0.54984289 0 0 Z " fill="#AF2356" transform="translate(210,208)"/>
<path d="M0 0 C1.98 0.99 1.98 0.99 4 2 C4 2.66 4 3.32 4 4 C4.99 4 5.98 4 7 4 C7 4.99 7 5.98 7 7 C6.01 7 5.02 7 4 7 C2.02 3.535 2.02 3.535 0 0 Z " fill="#BC245B" transform="translate(251,214)"/>
</svg>
